<svg xmlns="http://www.w3.org/2000/svg" viewBox="0 0 512 512">
  <defs>
    <linearGradient id="bg" x1="70" x2="442" y1="70" y2="442" gradientUnits="userSpaceOnUse">
      <stop stop-color="#6ee7f9"/>
      <stop offset="1" stop-color="#8b5cf6"/>
    </linearGradient>
  </defs>
  <rect width="512" height="512" rx="112" fill="#080b12"/>
  <circle cx="256" cy="256" r="178" fill="url(#bg)" opacity=".22"/>
  <path fill="#eef4ff" d="M256 94c-37 0-67 30-67 67v91c0 37 30 67 67 67s67-30 67-67v-91c0-37-30-67-67-67Zm-34 67c0-19 15-34 34-34s34 15 34 34v91c0 19-15 34-34 34s-34-15-34-34v-91Z"/>
  <path fill="#6ee7f9" d="M153 231c9 0 16 7 16 16 0 48 39 87 87 87s87-39 87-87c0-9 7-16 16-16s16 7 16 16c0 60-45 110-103 118v37h43c9 0 16 7 16 16s-7 16-16 16H197c-9 0-16-7-16-16s7-16 16-16h43v-37c-58-8-103-58-103-118 0-9 7-16 16-16Z"/>
</svg>
